# xmcd CD database file
#
# Track frame offsets:
#	150
#	100120
#	186770
#	231797
#
# Disc length: 3869 seconds
#
# Revision: 0
# Processed by: cddbd v1.5.2PL0 Copyright (c) Steve Scherf et al.
# Submitted via: CDex 1.70beta2
#
DISCID=280f1b04
DTITLE=Vinny Golia - Decennium Dans Axlan (Large Ensemble)
DYEAR=1992
DGENRE=Jazz
TTITLE0=Tapestry Of Things Before
TTITLE1=Frontback
TTITLE2=Mr. Justice
TTITLE3=Man In A Bottle
EXTD=YEAR: 1992
EXTT0=
EXTT1=
EXTT2=
EXTT3=
PLAYORDER=
